<svg height="461pt" viewBox="0 0 461.56 461" width="461pt" xmlns="http://www.w3.org/2000/svg"><path d="m158.160156 264.679688 38.992188 39c5.039062-3.390626 10.023437-6.871094 14.9375-10.441407l-43.496094-43.503906c-3.5625 4.9375-7.050781 9.914063-10.433594 14.945313zm0 0"/><path d="m140.664062 292.59375-18.640624 31.949219 15.273437 15.273437 31.960937-18.640625c4.773438-2.785156 9.503907-5.648437 14.183594-8.582031l-34.183594-34.195312c-2.945312 4.679687-5.808593 9.410156-8.59375 14.195312zm0 0"/><path d="m178.28125 236.808594 46.757812 46.75c4.761719-3.679688 9.449219-7.453125 14.074219-11.292969l-49.527343-49.53125c-3.851563 4.625-7.625 9.3125-11.304688 14.074219zm0 0"/><path d="m.9375 456.007812c-.601562.648438-.9375 1.480469-.9375 2.359376 0 2.800781 3.792969 4.441406 5.832031 2.527343l118.664063-111.246093-12.320313-12.3125zm0 0"/><path d="m389.9375 45.839844c1.816406 0 3.589844.191406 5.300781.542968l10.25-46.101562-64.03125 34.472656c-18.167969 9.78125-29.457031 28.679688-29.457031 49.308594v10.882812l62.617188-44.128906c4.367187-3.214844 9.710937-4.976562 15.320312-4.976562zm0 0"/><path d="m415.457031 66.601562c.351563 1.710938.542969 3.488282.542969 5.300782 0 5.609375-1.761719 10.960937-5.089844 15.464844l-44.023437 62.472656h10.882812c20.628907 0 39.527344-11.289063 49.308594-29.449219l34.480469-64.03125zm0 0"/><path d="m400 71.902344c0-5.550782-4.511719-10.0625-10.0625-10.0625-2.167969 0-4.226562.679687-5.96875 1.960937l-94.449219 66.558594c-5 3.527344-9.902343 7.191406-14.785156 10.90625l45.832031 45.832031c3.707032-4.882812 7.378906-9.785156 10.90625-14.785156l66.464844-94.3125c1.382812-1.871094 2.0625-3.9375 2.0625-6.097656zm0 0"/><path d="m200.015625 210.542969 51.28125 51.28125c4.488281-3.96875 8.886719-8.015625 13.230469-12.144531l-52.375-52.375c-4.121094 4.351562-8.167969 8.75-12.136719 13.238281zm0 0"/><path d="m248.289062 162.816406 50.734376 50.734375c3.9375-4.535156 7.792968-9.136719 11.570312-13.808593l-48.496094-48.496094c-4.671875 3.777344-9.273437 7.632812-13.808594 11.570312zm0 0"/><path d="m223.351562 185.871094 52.617188 52.625c4.207031-4.25 8.34375-8.566406 12.414062-12.96875l-52.070312-52.070313c-4.402344 4.070313-8.71875 8.214844-12.960938 12.414063zm0 0"/></svg>